# xmcd
#
# Track frame offsets: 
#        150
#        23393
#        49460
#        71685
#        98327
#        125945
#        152493
#        181630
#        200829
#        224526
#        249117
#
# Disc length: 3707 seconds
#
# Revision: 0
# Processed by: cddbd v1.5.2PL0 Copyright (c) Steve Scherf et al.
# Submitted via: ExactAudioCopyFreeDBPlugin 1.0
#
DISCID=920e790b
DTITLE=Bill Mallonee - Lead On, Kindly Light (Disk 2)
DYEAR=2019
DGENRE=Americana
TTITLE0=I Can See Their Ranks Are Thinning
TTITLE1=A Borrowing of Bones
TTITLE2=When the Walls Came Down
TTITLE3=Shake Down
TTITLE4=Place Off the Highway
TTITLE5=Always Crawling Back
TTITLE6=A World of Hurt (Seen Through a Veil of Tears)
TTITLE7=Travelin' Advices
TTITLE8=Into the Night
TTITLE9=This World and One More
TTITLE10=Heart Full of Weeds
EXTD=
EXTT0=
EXTT1=
EXTT2=
EXTT3=
EXTT4=
EXTT5=
EXTT6=
EXTT7=
EXTT8=
EXTT9=
EXTT10=
PLAYORDER=
